<svg xmlns="http://www.w3.org/2000/svg" version="1.0" viewBox="0 0 250 250">
  <path d="M187 20.5c-4.1 1.3-20.1 6.2-35.5 11-15.4 4.8-41.7 12.9-58.4 18.1-32 9.8-35.4 11.4-39.4 18.2-1 1.6-4.4 9.5-7.6 17.4-3.2 7.8-12.9 31.6-21.6 52.8C.5 196.7 0 198 0 204.5c0 3.1.7 6.9 1.5 8.5 3.3 6.4-4.2 6 108.1 6 100.4 0 102.2 0 108.4-2.1 11.7-3.8 21.5-12.1 26.6-22.4l2.9-6 .3-65.3c.2-45.7-.1-65.8-.8-67.3-1.8-3.3-7.1-5.9-12-5.9-7.1.1-19.8 3.5-22.6 6.1-2.8 2.6-3.1 6-.8 8.3 1.9 2 2.3 2 11.1-.1 4-.9 7.6-1.4 8-1 .7.7-2.4 106.9-3.4 117-.7 6.9-3.1 10.9-9 15-9.4 6.7-20.8 3.4-24.3-6.9-.8-2.4-.6-8.1 1-23.2 1.1-11 2.5-25.4 3-31.9s2.1-23.7 3.4-38.3c1.4-14.6 2.8-29.2 3.1-32.5.3-3.3 1.2-12.9 2-21.4 1.9-19.2 1.9-17.7-1-20.6-3.1-3.2-8.1-3.1-18.5 0zm6.6 11.2c-.3 1.6-.8 6.2-1.1 10.3-.3 4.1-1 10.4-1.6 14-.5 3.6-1.8 14.1-3 23.5-1.1 9.3-4.3 35.7-7 58.5-6.4 52.7-6.3 51.7-5 57 .5 2.4.9 4.6.7 4.7-.1.2-36.8 1.3-81.5 2.5-79.5 2.1-81.4 2.1-82.7.3-2.2-2.9-1.7-5.2 3.5-18.5 5.8-14.8 10.1-25.8 18.7-48 3.6-9.1 6.9-17.4 7.4-18.5.5-1.1 5-12.5 10.1-25.3 6.4-16.3 9.8-23.7 11.3-24.6 1.1-.7 8.6-3.2 16.6-5.5 13.1-3.8 36.9-10.9 44.5-13.2 1.7-.5 11.3-3.4 21.5-6.4 10.2-3 24.4-7.2 31.5-9.4 16.1-4.9 16.8-5 16.1-1.4z"/>
  <path d="M169.9 48.4c-.2.2-6.2 2-13.4 3.9-58 15.3-89.1 24.3-91 26.3-2.1 2.3-11.5 26.6-11.5 29.7 0 1 .6 2 1.4 2.3 1.4.5 13.4-1.7 40.1-7.6 13.7-3 19.8-4.3 44-9.4 27.5-5.7 29.2-6.2 31.4-9.8.7-1.1 2.1-7.7 3.1-14.7 1.1-6.9 2.2-13.8 2.4-15.3.6-3-1.5-5.8-4.3-5.8-1 0-2 .2-2.2.4zM163 69.9c-.7 4.5-1.4 8.1-1.5 8.1-.2 0-7.7 1.6-16.7 3.5-51 10.7-73.4 15.6-74.5 16-.7.2-1.3.2-1.3 0 0-.6 4.1-10.9 4.5-11.3.2-.2 3.4-1.2 7.2-2.2 3.7-1 15.4-4.1 25.8-7 10.5-2.9 25.5-7 33.5-9.1 8-2.1 16.5-4.5 19-5.3 2.5-.7 4.6-1.2 4.8-1.1.2.2-.2 3.9-.8 8.4zM145 109.5c-6.9 1.3-18.1 3.3-25 4.5-6.9 1.2-13.9 2.8-15.7 3.5-3.6 1.5-3.1 0-14.1 39.5-6.3 22.5-6.7 24.7-5.2 26.5 1.1 1.3 2.8 1.5 10.4 1 5-.3 10.7-.7 12.6-1 1.9-.3 12.2-.9 22.7-1.5 20.8-1 23.1-1.6 25.2-6.8.9-2.5 2.6-12.3 8.3-50.2 1.2-8 1.9-15.3 1.5-16.3-.9-2.3-4.8-2.1-20.7.8zm5.5 18.5c-.8 4.1-2.3 12.4-3.4 18.5-1.2 6-2.4 12.9-2.7 15.2-.6 3.5-1.1 4.3-3.3 4.7-2.7.6-19.5 2.1-34.3 3.2l-8.6.6 1.9-7.4c4.4-16.1 7-26.5 7.8-29.9 1.1-5.2 1.7-5.7 6.9-6.4 2.6-.4 9.2-1.5 14.7-2.5 8.6-1.7 21.7-3.7 22.2-3.6 0 .1-.5 3.5-1.2 7.6zM62.6 125.9c-13.3 2.5-15.2 3.1-17.3 5.5-2.7 3.1-3 7.4-.7 8.3 1.6.6 22.9-2.1 29.6-3.8 4.4-1.1 7.8-5.1 7.8-8.9 0-2.5-1.7-4.2-3.8-3.9-.4.1-7.4 1.3-15.6 2.8zM55.1 148.5c-14.2 2-15.6 2.4-17.8 4.9-2.6 3.1-3.1 8.4-.8 9.2 2 .8 29.2-2.4 32.8-3.8 5-2 7.5-9.8 3.8-11.8-1.1-.5-2.1-.9-2.3-.9-.2.1-7.2 1.1-15.7 2.4zM43.9 173.5c-6.4.7-12.7 1.8-13.8 2.5-2.5 1.3-4.1 4.8-4.1 9.2v3.1l16.2-.7c8.8-.4 17.2-1.2 18.5-1.7 2.7-1 6.3-6.4 6.3-9.5 0-4.8-2.6-5.1-23.1-2.9z"/>
</svg>
